<svg xmlns="http://www.w3.org/2000/svg" width="133" height="48" viewBox="0 0 133 48">
    <g fill="none" fill-rule="evenodd">
        <path fill="#9BA6AA" fill-rule="nonzero" d="M48.47 33.79a3.63 3.63 0 0 0 3.67 2.62 2.75 2.75 0 0 0 3-2.79c0-4.2-7.87-3.12-7.87-8.54 0-2.4 1.82-4.3 4.8-4.3a4.9 4.9 0 0 1 4.8 3.22l-1.63.67a3.38 3.38 0 0 0-3.14-2.11 2.53 2.53 0 0 0-2.84 2.52c0 3.84 7.9 3.05 7.9 8.42 0 2.64-1.94 4.71-5.09 4.71a5.21 5.21 0 0 1-5.25-3.7l1.65-.72zM60 21.09h4.61c3 0 5 1.8 5 4.85a4.69 4.69 0 0 1-5 4.92H62v7h-2V21.09zm4.44 8a2.94 2.94 0 0 0 3.19-3.19 2.9 2.9 0 0 0-3.19-3.12H62v6.31h2.44z"/>
        <path fill="#454F54" fill-rule="nonzero" d="M83.39 37.9h-1.85v-2a5.1 5.1 0 0 1-4.32 2.28c-3.57 0-6.09-2.72-6.09-6.53s2.4-6.58 6-6.58a5.1 5.1 0 0 1 4.39 2.33v-6.86h1.92l-.05 17.36zM77.3 26.83c-2.45 0-4.23 2-4.23 4.87s1.85 4.8 4.25 4.8c2.62 0 4.22-2.18 4.22-4.8 0-3.09-1.92-4.87-4.24-4.87zM87.59 20.9a1.31 1.31 0 1 1-1.29 1.3 1.3 1.3 0 0 1 1.29-1.3zm-.93 4.51h1.89V37.9h-1.89V25.41zM93.16 39.77a7.81 7.81 0 0 0 3.77 1c2.37 0 4.39-1 4.39-3.77v-1.1A5 5 0 0 1 97 38.21c-3.58 0-6-2.72-6-6.53s2.47-6.58 6-6.58a5.18 5.18 0 0 1 4.41 2.33v-2h1.83v10.74c0 4.73-2.67 6.33-6.27 6.33a9.13 9.13 0 0 1-4.46-1.24l.65-1.49zm4-12.94c-2.42 0-4.22 2-4.22 4.85 0 2.85 1.87 4.8 4.27 4.8 2.57 0 4.22-2.11 4.22-4.8-.04-3.03-1.93-4.85-4.31-4.85h.04zM107.32 20.9a1.31 1.31 0 1 1-1.3 1.3 1.3 1.3 0 0 1 1.3-1.3zm-.94 4.51h1.9V37.9h-1.9V25.41zM111.69 22.8h1.89v2.61h2.74V27h-2.74v6.43c0 2.33.68 2.88 2.31 2.88h.53V38a9.49 9.49 0 0 1-1.16.07c-2.49 0-3.57-1.63-3.57-4.44V27h-1.47v-1.59h1.47V22.8zM122.61 30a4.77 4.77 0 0 1 3.29 1.13v-1.59c0-1.75-1.18-2.76-3-2.76a7.15 7.15 0 0 0-3.67 1.08l-.77-1.39A8.79 8.79 0 0 1 123 25.1c3.41 0 4.75 1.9 4.75 4.56v8.24h-1.63l-.22-1.06a4.25 4.25 0 0 1-3.38 1.37c-2.74 0-4.75-1.73-4.75-4.16S119.8 30 122.61 30zm.26 6.67c1.83 0 3.1-1.08 3.1-2.59 0-1.51-1.25-2.57-3.12-2.57s-3.12 1.11-3.12 2.57c0 1.46 1.27 2.54 3.14 2.54v.05zM130.86 20.54h1.9V37.9h-1.9z"/>
        <path fill="#2585A3" d="M18 12C8.059 12 0 20.059 0 30s8.059 18 18 18 18-8.059 18-18-8.059-18-18-18m0 26a8 8 0 1 1 0-16 8 8 0 0 1 0 16"/>
        <path fill="#00B0B2" d="M26 30.79a.59.59 0 0 1 0-.13 8 8 0 1 1-4.24-7.73C15.1 19.35 0 19.13 0 30c0 9.941 8.059 18 18 18s18-8.059 18-18V18c0 6-4.4 12.22-10 12.79z"/>
        <path fill="#1BE2CA" d="M26 5v25a8 8 0 0 1-8 8c15 0 18-10 18-13V5a5 5 0 0 0-10 0z"/>
    </g>
</svg>
